# xmcd CD database file
# Copyright (C) 1996 Ti Kan
#
# Track frame offsets:
#  150
#  15932
#  29580
#  47172
#  64347
#  91800
#  107222
#  132167
#  152017
#
# Disc length: 2421 seconds
#
# Revision: 1
# Processed by: cddbd v1.4b41PL1 Copyright (c) Steve Scherf et al.
# Submitted via: CDWizzard Release:4.10
#
DISCID=6e097309
DTITLE=Split Enz - Dizrythmia
DYEAR=1900
DGENRE=
TTITLE0=Bold as brass
TTITLE1=My mistake
TTITLE2=Parrot fashion love
TTITLE3=Sugar and spice
TTITLE4=Without a doubt
TTITLE5=Crossroads
TTITLE6=Charlie
TTITLE7=Nice to know
TTITLE8=Jamboree
EXTD=
EXTT0=
EXTT1=
EXTT2=
EXTT3=
EXTT4=
EXTT5=
EXTT6=
EXTT7=
EXTT8=
PLAYORDER=
